<?xml version="1.0" encoding="utf-8"?>
<!-- Generator: Adobe Illustrator 19.2.1, SVG Export Plug-In . SVG Version: 6.00 Build 0)  -->
<svg version="1.1" id="Layer_1" xmlns="http://www.w3.org/2000/svg" xmlns:xlink="http://www.w3.org/1999/xlink" x="0px" y="0px"
	 viewBox="0 0 110 110" style="enable-background:new 0 0 110 110;" xml:space="preserve">
<style type="text/css">
	.st0{fill:#83CCE4;}
</style>
<path class="st0" d="M104.7,31.6L104.7,31.6v-0.2c3.4-7.2,5.2-12.6,5.2-15.5c0-8.7-7.1-15.8-15.8-15.8c-5,0-9.8,2.4-12.8,6.6
	l-0.1,0.2L81,6.8C69.3,0.3,58.1,0,54.9,0.1c-0.1,0-0.2,0-0.2,0C54,0,53.2,0,52.4,0c-9.9,0-24.5,4.9-35.5,15S0,39,0,55
	c0,15,5.8,29,16.4,39.4C26.9,104.6,41,110.3,55,110c16-0.4,29.8-6,39.7-16.5C106.4,81.3,110.3,65.6,110,55
	C109.8,46.4,108,38.5,104.7,31.6z M20.2,16.6c7-6.3,15.5-10.6,24.7-12.4L45.7,4l-0.6,0.6C40.5,9,36.7,16.3,34,25.6v0.3l-0.3-0.1
	c-4.9-2.2-9.5-5.2-13.5-8.9L20,16.8L20.2,16.6z M36.4,30.2c5.4,1.9,11.1,3,16.8,3.2h0.2v20.1H33.3v-0.3c0.2-8.1,1.1-15.8,2.7-22.9
	l0.1-0.3L36.4,30.2z M3.1,53.3c0.4-12.8,5.6-25,14.5-34.2l0.2-0.2l0.2,0.2c4.4,4.1,9.5,7.3,15,9.8l0.2,0.1v0.2
	c-1.7,7.4-2.7,15.5-2.8,24.1v0.2H3.1V53.3z M35,76.1c3.3,0,6,2.7,6,6s-2.7,6-6,6c-3.3,0-6-2.7-6-6C29,78.8,31.7,76.1,35,76.1z
	 M17.8,91.2L17.6,91C8.7,81.8,3.5,69.7,3.1,56.8v-0.3h27.2v0.2c0.1,5.8,0.6,11.4,1.4,16.6v0.2l-0.2,0.1C28.2,75.1,26,78.4,26,82
	c0,0.9,0.2,1.8,0.4,2.5v0.2l-0.2,0.1c-3,1.8-5.8,3.9-8.3,6.2L17.8,91.2z M44.9,105.9c-9.2-1.8-17.7-6.1-24.7-12.4L20,93.3l0.2-0.2
	c2.3-2.1,4.8-4,7.4-5.6l0.2-0.1l0.1,0.2c1.4,1.8,3.9,3.8,8.1,3.4h0.2l0.1,0.2c2.4,6.3,5.4,11.1,8.9,14.4l0.6,0.6L44.9,105.9z
	 M53.5,106.8l-0.3-0.1c-5.3-1.1-10.2-7-13.9-16.5L39.1,90l0.2-0.1c1.6-0.9,5.3-3.5,4.6-8.8v-0.2h0.2c3-0.6,6-1,9.1-1.1h0.3
	C53.5,79.8,53.5,106.8,53.5,106.8z M53.5,76.7h-0.2c-3.4,0.1-6.7,0.5-10,1.2L43,78v-0.2c-1.6-3-4.6-4.8-7.9-4.8h-0.2l-0.1-0.2
	c-0.8-5.1-1.2-10.4-1.3-16v-0.3h20.1L53.5,76.7L53.5,76.7z M53.5,30.3h-0.3c-5.6-0.2-11-1.2-16.1-3.1l-0.2-0.1l0.1-0.2
	c3.7-13.4,9.7-22.2,16.2-23.5l0.3-0.1C53.5,3.3,53.5,30.3,53.5,30.3z M94.2,3.2c7,0,12.7,5.7,12.7,12.7c0,6.3-10.4,24.9-12.5,28.6
	l-0.2,0.4L94,44.5c-2.1-3.7-12.5-22.3-12.5-28.6C81.5,8.9,87.2,3.2,94.2,3.2z M81.3,26.8l0.2-0.1l0.1,0.3
	c3.6,8.4,11.2,21.7,12.6,24.1c1-1.8,5.6-9.7,8.5-15.3l0.2-0.5l0.2,0.5c2.3,5.6,3.5,11.5,3.7,17.6v0.3H79.7v-0.2
	c-0.1-8.6-1.1-16.7-2.8-24.2v-0.2l0.2-0.1C78.4,28.2,79.8,27.5,81.3,26.8z M65.1,4.2c5,0.9,9.8,2.7,14.4,5.2l0.2,0.1l-0.1,0.2
	c-0.8,2-1.3,4-1.3,6.2c0,1.8,0.6,4.3,1.9,7.7l0.1,0.2l-0.2,0.1c-1.1,0.6-2.4,1.2-3.9,1.9L76,25.9v-0.3c-2.6-9.4-6.5-16.6-11-21
	L64.3,4L65.1,4.2z M56.5,3.3l0.3,0.1C63.3,4.7,69.3,13.5,73,26.9l0.1,0.2l-0.2,0.1c-5.1,1.9-10.5,2.9-16.1,3.1h-0.3
	C56.5,30.3,56.5,3.3,56.5,3.3z M56.5,33.4h0.2c5.8-0.2,11.4-1.3,16.8-3.2l0.3-0.1l0.1,0.3c1.6,7,2.6,15,2.7,22.9v0.3H56.5V33.4z
	 M56.5,56.6h20.1v0.3c-0.1,8.1-1,15.8-2.7,22.9V80l-0.3-0.1c-5.3-1.9-11-3-16.9-3.2h-0.2C56.5,76.7,56.5,56.6,56.5,56.6z
	 M56.8,106.7l-0.3,0.1v-27h0.3c5.6,0.2,11,1.2,16.1,3.1l0.2,0.1L73,83.2C69.4,96.5,63.3,105.3,56.8,106.7z M89.8,93.5
	c-7,6.3-15.5,10.6-24.7,12.4l-0.9,0.2l0.6-0.6c4.6-4.4,8.4-11.6,11.1-21.1l0.1-0.3l0.3,0.1c4.9,2.2,9.5,5.2,13.5,8.9l0.2,0.2
	L89.8,93.5z M92.4,91l-0.2,0.2L92,91c-4.5-4.1-9.6-7.4-15-9.8l-0.2-0.1v-0.2c1.7-7.4,2.7-15.5,2.8-24.1v-0.2h27.2v0.3
	C106.4,69.7,101.3,81.8,92.4,91z M101.1,15.9c0-3.8-3.1-6.9-6.9-6.9s-6.9,3.1-6.9,6.9s3.1,6.9,6.9,6.9
	C98,22.7,101.1,19.7,101.1,15.9z M90.4,15.9c0-2.1,1.7-3.8,3.8-3.8c2.1,0,3.8,1.7,3.8,3.8s-1.7,3.8-3.8,3.8
	C92.1,19.7,90.4,18,90.4,15.9z"/>
</svg>
