<?xml version="1.0" encoding="utf-8"?>
<!-- Generator: Adobe Illustrator 19.2.1, SVG Export Plug-In . SVG Version: 6.00 Build 0)  -->
<svg version="1.1" id="Layer_1" xmlns="http://www.w3.org/2000/svg" xmlns:xlink="http://www.w3.org/1999/xlink" x="0px" y="0px"
	 viewBox="0 0 120 110" style="enable-background:new 0 0 120 110;" xml:space="preserve">
<style type="text/css">
	.st0{fill:#83CCE4;}
</style>
<path class="st0" d="M1.1,66c5.2,25.5,28,44,54.2,44c3.7,0,7.5-0.4,11.1-1.1c10.5-2.1,20-7.1,27.6-14.5l24.1,1.3
	c0.6,0,1.3-0.3,1.6-0.8c0.3-0.5,0.3-1.2,0-1.8c-5.2-8.7-10.8-18.6-11.8-20.9c3-9.2,3.6-18.9,1.7-28.1c-5.2-25.5-28-44-54.2-44
	C51.7,0,48,0.4,44.3,1.1C29.8,4.1,17.3,12.4,9.2,24.7C1,36.9-1.8,51.6,1.1,66z M12.1,26.6C19.8,15.1,31.4,7.3,45,4.5
	c3.4-0.7,7-1.1,10.4-1.1c24.5,0,45.8,17.3,50.7,41.2c1.8,8.8,1.2,18.1-1.6,26.6c-0.4,1.1-0.6,1.7,10.6,20.6l-21.2-1.1
	c-0.2,0-0.3-0.1-0.5-0.1c-0.5,0-0.9,0.2-1.2,0.5c-7.2,7.2-16.3,12.1-26.4,14.2c-3.4,0.7-6.9,1.1-10.4,1.1
	c-24.5,0-45.8-17.3-50.7-41.2C1.8,51.8,4.5,38.1,12.1,26.6z"/>
<path class="st0" d="M83.1,69.5C83.1,69.5,83.1,69.5,83.1,69.5L71.2,42.1c-0.4-0.8-1.2-1.2-2.1-1c-0.8-0.2-1.7,0.2-2.1,1l-7.6,17.6
	c-0.1-0.1-0.2-0.2-0.3-0.2c-3-1.6-7.2-4.2-11.2-7.6c5.1-5.1,9.6-11.7,11-19.9h8.2c1,0,1.8-0.8,1.8-1.7s-0.8-1.7-1.8-1.7H47.6v-4.2
	c0-1-0.8-1.7-1.8-1.7s-1.8,0.8-1.8,1.7v4.2H24.5c-1,0-1.8,0.8-1.8,1.7s0.8,1.7,1.8,1.7h30.9c-1.4,7-5.4,12.9-10,17.4
	c-3.3-3.3-6.4-7.2-8.3-11.8c-0.4-0.9-1.4-1.3-2.3-0.9c-0.9,0.4-1.3,1.4-0.9,2.3c2.1,5,5.4,9.2,9,12.8c-7.7,6.6-15.9,10-16,10
	c-0.9,0.4-1.3,1.4-1,2.3c0.3,0.7,0.9,1.1,1.6,1.1c0.2,0,0.4,0,0.7-0.1c0.6-0.3,9.3-3.8,17.3-10.8c4.4,3.8,8.8,6.6,12.1,8.3
	c0.2,0.1,0.4,0.1,0.7,0.2l-2.9,6.8c0,0,0,0,0,0l-5.8,13.5c-0.4,0.9,0,1.9,0.9,2.3c0.2,0.1,0.5,0.1,0.7,0.1c0.7,0,1.3-0.4,1.6-1.1
	L58,71.9h22.3l5.4,12.4c0.3,0.7,0.9,1.1,1.6,1.1c0.2,0,0.5,0,0.7-0.1c0.9-0.4,1.3-1.4,0.9-2.3L83.1,69.5z M59.6,68.4l9.6-22.2
	l9.6,22.2H59.6z"/>
</svg>
