<?xml version="1.0" encoding="utf-8"?>
<!-- Generator: Adobe Illustrator 19.2.1, SVG Export Plug-In . SVG Version: 6.00 Build 0)  -->
<svg version="1.1" id="Layer_1" xmlns="http://www.w3.org/2000/svg" xmlns:xlink="http://www.w3.org/1999/xlink" x="0px" y="0px"
	 viewBox="0 0 192 110" style="enable-background:new 0 0 192 110;" xml:space="preserve">
<style type="text/css">
	.st0{fill:#83CCE4;}
</style>
<path class="st0" d="M172.5,47.1H94.7c-0.9,0-1.4,0.6-1.4,1.4V98c0,0.9,0.6,1.4,1.4,1.4h77.9c0.9,0,1.4-0.6,1.4-1.4V48.5
	C174,47.7,173.4,47.1,172.5,47.1z M171.1,50v46.6h-75V50H171.1z"/>
<path class="st0" d="M86.5,69.4c0-0.9-0.6-1.4-1.4-1.4H44.9c-0.9,0-1.4,0.6-1.4,1.4c0,0.9,0.6,1.4,1.4,1.4H85
	C85.7,70.9,86.5,70,86.5,69.4z"/>
<path class="st0" d="M28.6,106.9h-7.3c0.8-0.2,1.3-0.8,1.3-1.6c0-0.9-0.7-1.7-1.7-1.7c-0.9,0-1.7,0.7-1.7,1.7c0,0.8,0.6,1.5,1.3,1.6
	h-17c-0.5,0-0.7-0.3-0.7-0.8V55.3c0-0.5,0.3-0.8,0.7-0.8h34.7c0.5,0,0.7,0.3,0.7,0.8v15.2c0,0.9,0.6,1.4,1.4,1.4s1.4-0.6,1.4-1.4
	V55.3c0-1.9-1.7-3.6-3.6-3.6H3.6c-1.9,0-3.6,1.7-3.6,3.6v50.8c0,1.9,1.7,3.6,3.6,3.6h25c0.9,0,1.4-0.6,1.4-1.4
	C30.1,107.4,29.2,106.9,28.6,106.9z"/>
<path class="st0" d="M142.4,38.6c0.2,0.3,0.7,0.6,1.2,0.6c0.9,0,1.4-0.6,1.4-1.4v-29c0-0.9-0.6-1.4-1.4-1.4H31.3
	c-0.9,0-1.4,0.6-1.4,1.4V49c0,0.9,0.6,1.4,1.4,1.4c0.9,0,1.4-0.6,1.4-1.4V10.2h109.6v27.7C142.3,38.1,142.3,38.4,142.4,38.6z"/>
<path class="st0" d="M24,50.4c0.9,0,1.4-0.6,1.4-1.4V4.3c0-0.7,0.7-1.4,1.4-1.4H148c0.7,0,1.4,0.7,1.4,1.4v33.4
	c0,0.9,0.6,1.4,1.4,1.4s1.4-0.6,1.4-1.4V4.3c0-2.4-1.9-4.3-4.3-4.3H26.9c-2.4,0-4.3,1.9-4.3,4.3V49C22.6,49.5,23.2,50.4,24,50.4z"/>
<path class="st0" d="M53.2,78.1h32c0.9,0,1.4-0.6,1.4-1.4c0-0.9-0.6-1.4-1.4-1.4h-32c-0.9,0-1.4,0.6-1.4,1.4
	C51.8,77.5,52.4,78.1,53.2,78.1z"/>
<path class="st0" d="M46.9,73.5H34.8c-1.9,0-3.6,1.7-3.6,3.6v29.3c0,1.9,1.7,3.6,3.6,3.6h12.1c1.9,0,3.6-1.7,3.6-3.6V76.9
	C50.5,74.9,49,73.5,46.9,73.5z M42.6,105.3c0-0.9-0.7-1.7-1.7-1.7c-0.9,0-1.7,0.7-1.7,1.7c0,0.8,0.6,1.5,1.3,1.6h-5.8
	c-0.5,0-0.7-0.3-0.7-0.8v-2.7h13.3v2.7l0,0.1c0,0.1,0.1,0.3,0,0.4c-0.1,0.1-0.3,0.2-0.5,0.2h-5.6C42,106.7,42.6,106.1,42.6,105.3z
	 M34.4,76.7c0-0.1,0-0.1,0-0.2c0.1-0.1,0.3-0.2,0.6-0.2h12.1c0.5,0,0.7,0.3,0.7,0.8v1.6H34.5v-1.9L34.4,76.7z M47.6,81.4v19.1H34.3
	V81.4H47.6z"/>
<path class="st0" d="M74.1,106.9h-4.2l4.2-3.1c0.2-0.2,0.5-0.5,0.5-1.1l1.3-13.1h9.6c0.9,0,1.4-0.6,1.4-1.4c0-0.9-0.6-1.4-1.4-1.4
	H53.2c-0.9,0-1.4,0.6-1.4,1.4c0,0.9,0.6,1.4,1.4,1.4h19.6l-1.3,12.2l-5.4,3.9c-0.2,0.2-0.5,0.5-0.5,1.1c0,1,0.4,1.6,0.7,2
	c0.3,0.5,1,0.8,2.3,0.8h5.5c0.9,0,1.4-0.6,1.4-1.4C75.5,107.7,75.3,106.9,74.1,106.9z"/>
<path class="st0" d="M191.4,102.5c-0.5-0.6-1.2-0.9-2-0.9h-10.2V44.6c0-2.2-1.9-4.1-4.1-4.1H92c-2.2,0-4.1,1.9-4.1,4.1v57.1H77.8
	c-1.5,0-2.8,1.3-2.8,2.8v1.3c0,2.4,8.7,3.8,10.4,4.1l96.1,0c1.7-0.3,10.4-1.7,10.4-4.1l0-1.3C192.1,103.7,191.9,103.1,191.4,102.5z
	 M176.1,101.6h-30.8c-0.3,0-0.9,0.3-1.1,0.5c-0.3,0.3-0.3,0.5-0.3,0.8h-20.6c0-0.3,0-0.7-0.3-1c-0.2-0.2-0.5-0.5-1.1-0.5h-31V44.6
	c0-0.7,0.5-1.2,1.2-1.2H175c0.7,0,1.2,0.5,1.2,1.2V101.6z M123.4,105.8h20.8c1,0,1.9-0.7,2.4-1.3h42.9v0.4l0,0c-1.5,0.7-7,2-7.8,2
	H85.9c-0.8,0-5.8-1.2-7.8-1.9v-0.5H121C121.5,105.3,122.4,105.8,123.4,105.8z"/>
<circle class="st0" cx="21" cy="55.8" r="1"/>
<path class="st0" d="M28.6,100.5h-22V59.9h28.7v10.6c0,0.9,0.6,1.4,1.4,1.4s1.4-0.6,1.4-1.4V58.4c0-0.9-0.6-1.4-1.4-1.4H5.2
	c-0.9,0-1.4,0.6-1.4,1.4V102c0,0.9,0.6,1.4,1.4,1.4h23.5c0.9,0,1.4-0.6,1.4-1.4C30.1,101.1,29.5,100.5,28.6,100.5z"/>
</svg>
