<?xml version="1.0" encoding="utf-8"?>
<!-- Generator: Adobe Illustrator 19.2.1, SVG Export Plug-In . SVG Version: 6.00 Build 0)  -->
<svg version="1.1" id="Layer_1" xmlns="http://www.w3.org/2000/svg" xmlns:xlink="http://www.w3.org/1999/xlink" x="0px" y="0px"
	 viewBox="0 0 110 110" style="enable-background:new 0 0 110 110;" xml:space="preserve">
<style type="text/css">
	.st0{fill:#83CCE4;}
</style>
<path class="st0" d="M36.1,36.2c-5,5-7.8,11.7-7.8,18.9s2.8,13.8,7.8,18.9c5,5,11.7,7.8,18.9,7.8c7.1,0,13.8-2.8,18.9-7.8
	c5-5,7.8-11.7,7.8-18.9s-2.8-13.8-7.8-18.9c-5-5-11.7-7.8-18.9-7.8C47.9,28.4,41.2,31.1,36.1,36.2z M37.5,69.7
	c-3.5-4.1-5.4-9.2-5.4-14.7c0-12.6,10.3-22.9,22.9-22.9c5.4,0,10.7,2,14.7,5.4L37.5,69.7z M40.3,72.5l32.3-32.2
	c3.5,4.1,5.4,9.2,5.4,14.7c0,12.6-10.3,22.9-22.9,22.9C49.6,77.9,44.3,76,40.3,72.5z"/>
<path class="st0" d="M109.9,28.4C86.7,23.5,69.8,14.8,55.1,0.1L55,0l-0.1,0.1C40.2,14.8,23.3,23.5,0.1,28.4l-0.1,0v0.1
	c0,18.6,5.4,36.2,15.6,50.8C25.4,93.2,39,103.8,55,110l0,0l0,0c15.9-6.1,29.5-16.7,39.3-30.6C104.6,64.8,110,47.2,109.9,28.4
	L109.9,28.4L109.9,28.4z M106.3,31.4c-0.4,16.1-5.3,31.6-14.3,44.8C82.7,89.6,70,99.9,55,105.9c-15-6-27.7-16.3-36.9-29.7
	C8.9,63,3.9,47.5,3.7,31.4c20-5,34.8-10.9,51.3-26.3C71.3,20.3,87.3,26.6,106.3,31.4z"/>
</svg>
